:SAMPLES-PER-SECOND 30
:FULLY-SPECIFIED
:DEGREES
462
root  1.60946 34.0427 19.5663 4.41419 34.3374 -1.24019
LeftUpLeg  -6.05659 9.58367 3.34376
LeftLeg  13.675 9.11521 1.5974
LeftFoot  -3.54749 -0.0146029 -0.591617
LeftToes  -16.7109 1.92152e-006 4.03786e-008
Spine  1.32597 0.552495 -0.578585
Spine1  2.41261 0.957366 -0.856816
RightShoulder  0.0444737 4.26392 6.99692
RightArm  -31.5153 -18.8684 74.6198
RightForeArm  31.0196 16.7938 3.04408
RightHand  1.13565 -12.9865 -9.57842
LeftShoulder1  0.0553318 0.736573 -10.8631
LeftArm  -18.1885 14.7126 -66.9692
LeftForeArm  26.7113 -14.8629 -2.67753
LeftHand  0.212288 5.3993 4.12851
HEad  -2.083 -3.07341 -3.392
RightUpLeg  -10.0057 -5.92284 -5.61082
RightLeg  10.6733 0.0512063 0.00759927
RightFoot  4.0666 0.0112505 0.0495389
RightToes  -34.5004 -0.17789 -0.284931
463
root  1.59411 34.0451 19.5898 4.30932 34.7857 -1.2154
LeftUpLeg  -6.01392 9.37919 3.40114
LeftLeg  13.7162 8.88509 1.56393
LeftFoot  -3.50121 -0.0147608 -0.570946
LeftToes  -16.7234 1.92152e-006 4.03786e-008
Spine  1.32506 0.64011 -0.521616
Spine1  2.41233 1.12108 -0.736694
RightShoulder  0.0455125 4.37733 6.90104
RightArm  -31.5404 -19.3803 74.3567
RightForeArm  31.2044 16.4783 2.9834
RightHand  1.10771 -12.9362 -9.37271
LeftShoulder1  0.0541705 0.765703 -10.9178
LeftArm  -17.7595 14.4711 -67.032
LeftForeArm  26.6781 -14.9545 -2.6948
LeftHand  0.208421 5.45417 4.02412
HEad  -2.48111 0.703441 -4.00723
RightUpLeg  -9.76069 -5.80397 -5.61404
RightLeg  10.6342 -0.48261 -0.0574895
RightFoot  3.99644 0.0126201 0.00961742
RightToes  -34.6014 -0.177824 -0.284701
464
root  1.57353 34.0489 19.6101 4.22084 35.2998 -1.18286
LeftUpLeg  -5.98317 9.13119 3.45838
LeftLeg  13.7151 8.61537 1.51662
LeftFoot  -3.42448 -0.0147814 -0.543545
LeftToes  -16.8205 1.92152e-006 4.03786e-008
Spine  1.32247 0.734031 -0.477849
Spine1  2.40832 1.29713 -0.642176
RightShoulder  0.0463765 4.52455 6.78004
RightArm  -31.3584 -19.8466 74.0581
RightForeArm  31.5253 16.0561 2.90248
RightHand  1.07094 -12.882 -9.09045
LeftShoulder1  0.053068 0.795725 -11.0019
LeftArm  -17.4166 14.2156 -67.0265
LeftForeArm  26.6117 -15.1073 -2.72364
LeftHand  0.206502 5.40757 3.99555
HEad  -3.05064 3.92772 -4.50701
RightUpLeg  -9.50545 -5.73124 -5.61317
RightLeg  10.5516 -1.06017 -0.1263
RightFoot  3.94166 0.0141109 -0.0325129
RightToes  -34.6519 -0.177716 -0.284411
465
root  1.54651 34.051 19.6279 4.14932 35.8691 -1.14704
LeftUpLeg  -5.98302 8.94346 3.52426
LeftLeg  13.7019 8.23016 1.44729
LeftFoot  -3.31649 -0.0146439 -0.50584
LeftToes  -17.0507 1.92152e-006 4.03786e-008
Spine  1.3314 0.834386 -0.446054
Spine1  2.42602 1.48697 -0.573069
RightShoulder  0.047313 4.73567 6.63509
RightArm  -31.5833 -20.1132 73.8155
RightForeArm  32.2935 15.385 2.77439
RightHand  1.06894 -12.8457 -9.0997
LeftShoulder1  0.0520317 0.787055 -11.0407
LeftArm  -17.1771 13.8848 -67.0499
LeftForeArm  26.6165 -15.2155 -2.74408
LeftHand  0.202847 5.33913 3.97328
HEad  -3.78632 6.92544 -5.02438
RightUpLeg  -9.27594 -5.80071 -5.60371
RightLeg  10.4966 -1.55984 -0.184904
RightFoot  3.85662 0.0149817 -0.06742
RightToes  -34.6679 -0.177552 -0.284058
466
root  1.51429 34.0566 19.6422 4.08964 36.5195 -1.107
LeftUpLeg  -6.00983 8.72714 3.58719
LeftLeg  13.6684 7.79781 1.36702
LeftFoot  -3.16971 -0.0127586 -0.461137
LeftToes  -17.1999 1.92152e-006 4.03786e-008
Spine  1.35296 0.937332 -0.419853
Spine1  2.46824 1.68112 -0.510807
RightShoulder  0.0481915 4.97668 6.45701
RightArm  -31.8682 -20.2936 73.5439
RightForeArm  32.8731 14.7358 2.65138
RightHand  1.07001 -12.9111 -9.06096
LeftShoulder1  0.0510696 0.707367 -11.0871
LeftArm  -16.7884 13.4722 -67.0598
LeftForeArm  26.6083 -15.2685 -2.7541
LeftHand  0.196611 5.3167 3.85764
HEad  -4.76513 10.0017 -5.39655
RightUpLeg  -9.04692 -5.84288 -5.59333
RightLeg  10.4342 -2.12824 -0.250364
RightFoot  3.79158 0.0159062 -0.106013
RightToes  -34.6227 -0.17732 -0.283641
467
root  1.47621 34.0637 19.6596 4.01148 37.2388 -1.1003
LeftUpLeg  -6.01605 8.44863 3.68791
LeftLeg  13.5543 7.35649 1.275
LeftFoot  -2.9754 -0.0106947 -0.411798
LeftToes  -17.3937 1.92152e-006 4.03786e-008
Spine  1.38864 1.04389 -0.377759
Spine1  2.53752 1.88206 -0.414433
RightShoulder  0.0493255 5.25754 6.26059
RightArm  -32.5572 -20.3891 73.2648
RightForeArm  33.3603 14.1488 2.54085
RightHand  1.07773 -13.0106 -9.05581
LeftShoulder1  0.050189 0.648318 -11.1253
LeftArm  -16.1575 12.9378 -67.1326
LeftForeArm  26.6411 -15.2263 -2.74612
LeftHand  0.193391 5.32558 3.8033
HEad  -5.62304 13.0208 -5.56355
RightUpLeg  -8.80278 -5.96213 -5.54574
RightLeg  10.3571 -2.71092 -0.315492
RightFoot  3.75813 0.0167737 -0.145691
RightToes  -34.6403 -0.177005 -0.283156
